<svg version="1.1" id="Layer_1" xmlns="http://www.w3.org/2000/svg" xmlns:xlink="http://www.w3.org/1999/xlink" x="0px" y="0px"
	 width="100%" viewBox="0 0 528 122" enable-background="new 0 0 528 122" xml:space="preserve">
<path fill="#000000" opacity="1.000000" stroke="none" 
	d="
M529.000000,90.000000 
	C529.000000,100.962852 529.000000,111.925705 529.000000,123.000000 
	C496.979187,123.000000 464.958252,123.000000 432.445709,122.531769 
	C431.954102,113.840942 431.954102,105.618347 431.954102,96.901756 
	C433.941681,98.375786 435.207184,99.414764 436.568390,100.307915 
	C447.554535,107.516586 462.405304,104.101372 468.142822,92.386673 
	C473.941528,80.547073 473.834503,68.164169 468.008453,56.314636 
	C463.621765,47.392521 453.589935,43.086880 444.051300,45.957813 
	C439.540619,47.315437 435.512421,50.276089 431.332733,52.475147 
	C430.563904,46.001568 430.563904,46.001553 423.635376,46.000057 
	C423.135712,45.999950 422.626495,46.063759 422.137848,45.990433 
	C417.382996,45.276894 415.847961,47.171951 415.895752,52.050018 
	C416.127350,75.698090 416.000092,99.349663 416.000000,123.000000 
	C319.312439,123.000000 222.624878,123.000000 125.518921,122.662491 
	C131.031525,117.856415 135.696579,112.506523 138.103607,105.265511 
	C144.079666,87.287773 150.250305,69.374756 156.321075,51.428398 
	C156.835022,49.909046 157.186615,48.334774 157.830307,46.000118 
	C153.901367,46.000118 150.560715,46.380177 147.343521,45.911942 
	C142.392624,45.191372 140.589767,47.647514 139.488541,51.912472 
	C136.791473,62.357811 133.849121,72.740074 130.962479,83.135773 
	C130.690964,84.113594 130.114853,85.006828 129.201736,86.965660 
	C126.192162,76.153725 123.604263,66.410477 120.756790,56.743690 
	C117.440674,45.485935 117.345024,45.623821 105.319115,45.945545 
	C101.118256,46.057926 100.662621,47.468525 101.999702,51.178715 
	C107.857277,67.432655 113.499954,83.764603 119.138557,100.096573 
	C120.828651,104.991890 118.215309,109.104523 113.146324,109.915154 
	C106.000946,111.057846 106.000916,111.057846 106.000023,118.506523 
	C105.999847,120.004349 106.000000,121.502174 106.000000,123.000000 
	C71.111313,123.000000 36.222618,123.000000 1.000000,123.000000 
	C1.000000,112.314758 1.000000,101.626038 1.338261,90.520439 
	C5.294034,93.659988 8.415749,98.025795 12.630342,100.607506 
	C21.938803,106.309532 32.352585,105.931541 42.614487,103.557480 
	C53.652206,101.003929 60.639919,92.462082 60.963722,81.530258 
	C61.237228,72.296341 57.335110,63.873169 44.763180,60.755283 
	C37.859787,59.043224 30.917116,57.326317 24.258217,54.885681 
	C22.109446,54.098114 19.218412,50.746685 19.491335,49.012646 
	C19.904385,46.388290 22.302683,43.257744 24.726357,41.937813 
	C29.874657,39.134064 40.015820,40.091072 43.499241,47.122658 
	C44.071125,48.277058 45.439442,49.730026 46.531261,49.811066 
	C50.753853,50.124477 55.013512,49.938416 59.299484,49.938416 
	C58.729675,42.080402 56.578632,37.467426 51.925529,33.449871 
	C42.054680,24.927233 20.513041,25.101938 10.189000,33.212486 
	C1.264882,40.223259 0.317234,59.047020 9.020795,65.753662 
	C14.918570,70.298271 21.740967,71.128235 28.393833,73.013222 
	C32.530361,74.185242 36.800224,75.168861 40.651230,76.994392 
	C45.378578,79.235352 45.810722,83.339935 42.323467,87.159035 
	C37.091602,92.888763 23.861601,93.044029 19.452522,86.535027 
	C16.518759,82.203979 13.238391,81.806824 8.994754,81.979805 
	C6.333983,82.088272 3.665192,82.000000 1.000000,82.000000 
	C1.000000,55.024937 1.000000,28.049873 1.000000,1.000000 
	C131.687546,1.000000 262.375122,1.000000 393.862671,1.244747 
	C387.076447,8.077737 379.490234,14.665980 371.725800,21.408997 
	C380.199799,28.615902 388.187042,35.408817 397.000000,42.903996 
	C397.000000,28.110334 397.000000,14.555167 397.000000,1.000000 
	C398.388885,1.000000 399.777802,1.000000 401.583344,1.468657 
	C402.000000,15.264226 402.000000,28.591137 402.000000,42.889454 
	C410.954803,35.201061 418.896088,28.382830 427.194153,21.258287 
	C422.594879,17.423801 417.959991,13.775127 413.584717,9.838003 
	C410.538666,7.096971 407.848907,3.960066 405.000000,1.000002 
	C446.235382,1.000000 487.470734,1.000000 529.000000,1.000000 
	C529.000000,21.019936 529.000000,41.041309 528.659912,61.467346 
	C527.632141,60.781300 526.807678,59.753014 526.277283,58.590530 
	C518.082642,40.628971 489.625702,41.350544 480.721008,54.552376 
	C475.513428,62.273071 474.272369,70.633690 475.185913,79.274185 
	C476.214630,89.004005 479.571655,98.118980 489.867401,101.821266 
	C500.281982,105.566299 510.843445,105.757668 520.313721,99.041916 
	C523.662476,96.667198 526.130127,93.049965 529.000000,90.000000 
M364.581421,79.763336 
	C364.242523,81.071869 363.903625,82.380409 363.564728,83.688942 
	C360.544098,74.514748 358.277588,65.373566 356.040161,56.225250 
	C353.437256,45.582245 353.450531,45.667408 342.402252,45.942745 
	C339.632294,46.011776 338.103333,46.751659 337.575165,49.638306 
	C336.888580,53.390903 335.874634,57.084888 334.964844,60.795097 
	C333.084045,68.465202 331.178955,76.129341 329.283844,83.795937 
	C326.386932,74.349960 324.464813,65.002174 322.382751,55.690140 
	C320.150421,45.706200 320.086029,45.814980 309.715698,45.951233 
	C306.072601,45.999100 304.539429,46.702209 305.702972,50.884190 
	C309.533173,64.650772 312.864380,78.556114 316.687744,92.324715 
	C319.772064,103.431839 319.963165,103.286560 331.591034,103.056290 
	C334.780579,102.993126 336.407715,101.982559 337.109680,98.730545 
	C338.581970,91.910210 340.343292,85.148392 342.139008,78.403313 
	C343.110016,74.756065 344.396515,71.192818 345.540680,67.591675 
	C348.817017,76.353233 350.875458,84.907005 353.292450,93.358215 
	C356.081635,103.110725 356.224579,102.847023 366.544617,103.102646 
	C371.099060,103.215446 372.979889,101.531830 374.048218,97.238670 
	C377.900421,81.758644 382.002716,66.338577 386.224457,50.954567 
	C387.167847,47.516785 386.820312,45.816975 382.876465,45.984795 
	C380.215729,46.098019 377.472137,45.637936 374.909332,46.151451 
	C373.435120,46.446846 371.376282,47.968456 371.069336,49.285130 
	C368.770813,59.145206 366.843750,69.091873 364.581421,79.763336 
M273.834381,57.776878 
	C270.833588,56.810764 267.511230,56.351128 264.935455,54.715649 
	C262.933868,53.444790 260.581818,50.622059 260.713654,48.644264 
	C260.867554,46.335434 263.085663,43.430626 265.225922,42.126190 
	C271.488556,38.309254 281.027618,41.247845 284.731598,47.534519 
	C285.210144,48.346764 285.918488,49.660397 286.521698,49.661144 
	C291.121735,49.666840 295.722076,49.404053 300.322327,49.224827 
	C299.014374,45.122284 297.714874,41.016991 296.380096,36.923191 
	C296.287506,36.639214 295.909149,36.459339 295.702698,36.200005 
	C286.641602,24.818384 265.426361,24.790569 254.658386,31.205502 
	C245.652512,36.570686 241.649429,48.181480 245.136658,58.105110 
	C247.847641,65.819824 254.170288,68.874237 261.169708,70.973953 
	C267.526459,72.880859 274.136444,73.987694 280.413452,76.103722 
	C286.539215,78.168762 287.724976,84.299355 283.206207,88.155594 
	C276.760071,93.656624 263.505219,91.561272 258.896088,84.410896 
	C258.259674,83.423592 257.014648,82.246407 255.994080,82.189758 
	C251.589676,81.945267 247.163925,82.085175 242.532272,82.085175 
	C243.034058,90.324615 245.859940,96.581726 252.699554,99.981895 
	C257.070953,102.155029 261.919983,103.932220 266.726868,104.551041 
	C277.991058,106.001144 288.628265,104.357628 297.012177,95.507858 
	C304.606720,87.491310 304.850616,67.570923 290.901245,62.525673 
	C285.619598,60.615379 280.069305,59.447834 273.834381,57.776878 
M213.387985,91.965927 
	C204.460754,90.859581 201.033585,87.594139 200.624252,79.292542 
	C202.382782,79.195374 204.148529,79.019112 205.914841,79.013397 
	C215.069336,78.983749 224.223969,79.005646 233.378525,78.990578 
	C235.557892,78.986984 237.745712,79.203857 237.991318,75.939583 
	C239.619278,54.303200 227.162247,41.948906 205.394730,45.449596 
	C182.096390,49.196476 180.436707,79.218811 189.091812,93.501793 
	C197.417648,107.241425 220.900070,106.386986 230.310837,99.026642 
	C234.255463,95.941467 237.109421,91.987907 237.681686,86.126495 
	C231.186569,86.516449 224.803680,83.910828 219.633499,89.706886 
	C218.464462,91.017448 216.043015,91.210815 213.387985,91.965927 
M98.951035,49.828781 
	C97.516983,48.887745 96.144318,47.258831 94.638290,47.124458 
	C88.035164,46.535301 88.021172,46.692192 87.999992,39.975445 
	C87.978035,33.007668 87.978012,32.994469 80.797867,33.003208 
	C70.667076,33.015537 71.992821,32.380905 72.050362,41.875500 
	C72.070732,45.236370 71.471634,47.500439 67.452080,47.003780 
	C62.802181,46.429230 62.875721,49.527843 62.989792,52.717510 
	C63.099613,55.788464 62.167149,59.568813 67.384773,58.985851 
	C71.332886,58.544735 72.116455,60.618999 72.050362,64.059921 
	C71.890518,72.380867 71.970924,80.707115 72.009361,89.030968 
	C72.043671,96.461288 74.543816,100.125092 81.810921,101.960907 
	C85.600510,102.918243 89.692184,102.658775 93.642151,103.008400 
	C97.203644,103.323631 99.652794,102.452454 98.987427,98.177727 
	C98.459145,94.783722 101.210136,89.394737 94.011765,89.982155 
	C89.402771,90.358261 87.857727,87.868484 87.963707,83.560593 
	C88.115158,77.404556 88.288284,71.224213 87.908775,65.087860 
	C87.609016,60.241077 89.289055,58.296741 94.095978,58.984131 
	C97.697357,59.499134 99.445709,57.999439 99.017189,54.228336 
	C98.886414,53.077473 98.990776,51.899887 98.951035,49.828781 
M178.000000,59.500000 
	C178.000000,51.345547 178.063156,43.190491 177.984772,35.036789 
	C177.875153,23.635607 179.550064,25.311436 167.874725,24.916101 
	C163.324692,24.762033 161.851654,26.162422 161.902863,30.806683 
	C162.128586,51.273575 161.919174,71.744820 162.030289,92.213593 
	C162.097244,104.544197 160.063828,102.729965 172.874664,103.061249 
	C176.755249,103.161598 178.140045,101.924988 178.074203,97.942734 
	C177.867889,85.464828 177.999374,72.981331 178.000000,59.500000 
M406.999969,96.364944 
	C406.999969,82.554085 407.037933,68.743095 406.987183,54.932419 
	C406.950745,45.020901 408.149200,46.294395 397.770844,45.905174 
	C393.053955,45.728268 391.834229,47.426517 391.911743,51.909950 
	C392.153320,65.883026 391.953064,79.863136 392.015656,93.840111 
	C392.061432,104.061462 390.723419,102.715424 401.501373,103.088959 
	C406.028870,103.245865 407.608551,101.573372 406.999969,96.364944 
z"/>
<path fill="#282828" opacity="1.000000" stroke="none" 
	d="
M1.000000,82.444168 
	C3.665192,82.000000 6.333983,82.088272 8.994754,81.979805 
	C13.238391,81.806824 16.518759,82.203979 19.452522,86.535027 
	C23.861601,93.044029 37.091602,92.888763 42.323467,87.159035 
	C45.810722,83.339935 45.378578,79.235352 40.651230,76.994392 
	C36.800224,75.168861 32.530361,74.185242 28.393833,73.013222 
	C21.740967,71.128235 14.918570,70.298271 9.020795,65.753662 
	C0.317234,59.047020 1.264882,40.223259 10.189000,33.212486 
	C20.513041,25.101938 42.054680,24.927233 51.925529,33.449871 
	C56.578632,37.467426 58.729675,42.080402 59.299484,49.938416 
	C55.013512,49.938416 50.753853,50.124477 46.531261,49.811066 
	C45.439442,49.730026 44.071125,48.277058 43.499241,47.122658 
	C40.015820,40.091072 29.874657,39.134064 24.726357,41.937813 
	C22.302683,43.257744 19.904385,46.388290 19.491335,49.012646 
	C19.218412,50.746685 22.109446,54.098114 24.258217,54.885681 
	C30.917116,57.326317 37.859787,59.043224 44.763180,60.755283 
	C57.335110,63.873169 61.237228,72.296341 60.963722,81.530258 
	C60.639919,92.462082 53.652206,101.003929 42.614487,103.557480 
	C32.352585,105.931541 21.938803,106.309532 12.630342,100.607506 
	C8.415749,98.025795 5.294034,93.659988 1.338261,90.051781 
	C1.000000,87.629440 1.000000,85.258888 1.000000,82.444168 
z"/>
<path fill="#282828" opacity="1.000000" stroke="none" 
	d="
M416.466858,123.000000 
	C416.000092,99.349663 416.127350,75.698090 415.895752,52.050018 
	C415.847961,47.171951 417.382996,45.276894 422.137848,45.990433 
	C422.626495,46.063759 423.135712,45.999950 423.635376,46.000057 
	C430.563904,46.001553 430.563904,46.001568 431.332733,52.475147 
	C435.512421,50.276089 439.540619,47.315437 444.051300,45.957813 
	C453.589935,43.086880 463.621765,47.392521 468.008453,56.314636 
	C473.834503,68.164169 473.941528,80.547073 468.142822,92.386673 
	C462.405304,104.101372 447.554535,107.516586 436.568390,100.307915 
	C435.207184,99.414764 433.941681,98.375786 431.954102,96.901756 
	C431.954102,105.618347 431.954102,113.840942 431.977051,122.531769 
	C426.977905,123.000000 421.955811,123.000000 416.466858,123.000000 
M455.789062,77.025871 
	C455.020691,73.011780 454.682892,68.849121 453.363434,65.025185 
	C452.030792,61.162983 448.849457,59.155048 444.495483,58.948845 
	C439.859192,58.729275 436.251160,60.269035 434.170258,64.378372 
	C430.632599,71.364349 430.750641,78.671272 434.516418,85.345314 
	C435.793976,87.609497 439.419159,89.447144 442.186218,89.800987 
	C449.867004,90.783173 453.211090,87.439964 455.789062,77.025871 
z"/>
<path fill="#282828" opacity="1.000000" stroke="none" 
	d="
M106.468269,123.000000 
	C106.000000,121.502174 105.999847,120.004349 106.000023,118.506523 
	C106.000916,111.057846 106.000946,111.057846 113.146324,109.915154 
	C118.215309,109.104523 120.828651,104.991890 119.138557,100.096573 
	C113.499954,83.764603 107.857277,67.432655 101.999702,51.178715 
	C100.662621,47.468525 101.118256,46.057926 105.319115,45.945545 
	C117.345024,45.623821 117.440674,45.485935 120.756790,56.743690 
	C123.604263,66.410477 126.192162,76.153725 129.201736,86.965660 
	C130.114853,85.006828 130.690964,84.113594 130.962479,83.135773 
	C133.849121,72.740074 136.791473,62.357811 139.488541,51.912472 
	C140.589767,47.647514 142.392624,45.191372 147.343521,45.911942 
	C150.560715,46.380177 153.901367,46.000118 157.830307,46.000118 
	C157.186615,48.334774 156.835022,49.909046 156.321075,51.428398 
	C150.250305,69.374756 144.079666,87.287773 138.103607,105.265511 
	C135.696579,112.506523 131.031525,117.856415 125.050262,122.662491 
	C118.978844,123.000000 112.957695,123.000000 106.468269,123.000000 
z"/>
<path fill="#282828" opacity="1.000000" stroke="none" 
	d="
M529.000000,89.600006 
	C526.130127,93.049965 523.662476,96.667198 520.313721,99.041916 
	C510.843445,105.757668 500.281982,105.566299 489.867401,101.821266 
	C479.571655,98.118980 476.214630,89.004005 475.185913,79.274185 
	C474.272369,70.633690 475.513428,62.273071 480.721008,54.552376 
	C489.625702,41.350544 518.082642,40.628971 526.277283,58.590530 
	C526.807678,59.753014 527.632141,60.781300 528.659912,61.936005 
	C529.000000,67.354927 529.000000,72.709862 528.531372,78.532394 
	C517.249817,79.000984 506.436676,78.961487 495.624084,79.021919 
	C490.989777,79.047821 489.841980,81.246567 492.196991,85.282837 
	C496.269379,92.262566 504.796051,94.318527 511.001923,89.108269 
	C514.179871,86.440155 517.292542,85.848175 521.017395,85.981537 
	C523.675049,86.076683 526.338928,86.000000 529.000000,86.000000 
	C529.000000,87.066673 529.000000,88.133339 529.000000,89.600006 
M493.252655,67.924858 
	C498.539368,67.947372 503.826691,67.929947 509.112640,68.005249 
	C513.222412,68.063805 513.673889,66.037796 511.919739,63.002182 
	C509.697266,59.156200 506.333771,56.898125 501.777710,57.128944 
	C497.410553,57.350193 492.455933,61.368576 491.535217,65.331810 
	C491.372284,66.033180 492.125977,66.947479 493.252655,67.924858 
z"/>
<path fill="#BF0FFF" opacity="1.000000" stroke="none" 
	d="
M396.625000,1.000000 
	C397.000000,14.555167 397.000000,28.110334 397.000000,42.903996 
	C388.187042,35.408817 380.199799,28.615902 371.725800,21.408997 
	C379.490234,14.665980 387.076447,8.077737 394.331360,1.244747 
	C394.750000,1.000000 395.500000,1.000000 396.625000,1.000000 
z"/>
<path fill="#00A6FF" opacity="1.000000" stroke="none" 
	d="
M404.625000,1.000002 
	C407.848907,3.960066 410.538666,7.096971 413.584717,9.838003 
	C417.959991,13.775127 422.594879,17.423801 427.194153,21.258287 
	C418.896088,28.382830 410.954803,35.201061 402.000000,42.889454 
	C402.000000,28.591137 402.000000,15.264226 402.000000,1.468657 
	C402.750000,1.000000 403.500000,1.000000 404.625000,1.000002 
z"/>
<path fill="#000000" opacity="1.000000" stroke="none" 
	d="
M529.000000,85.562500 
	C526.338928,86.000000 523.675049,86.076683 521.017395,85.981537 
	C517.292542,85.848175 514.179871,86.440155 511.001923,89.108269 
	C504.796051,94.318527 496.269379,92.262566 492.196991,85.282837 
	C489.841980,81.246567 490.989777,79.047821 495.624084,79.021919 
	C506.436676,78.961487 517.249817,79.000984 528.531372,79.000000 
	C529.000000,81.041664 529.000000,83.083336 529.000000,85.562500 
z"/>
<path fill="#282828" opacity="1.000000" stroke="none" 
	d="
M364.690887,79.387383 
	C366.843750,69.091873 368.770813,59.145206 371.069336,49.285130 
	C371.376282,47.968456 373.435120,46.446846 374.909332,46.151451 
	C377.472137,45.637936 380.215729,46.098019 382.876465,45.984795 
	C386.820312,45.816975 387.167847,47.516785 386.224457,50.954567 
	C382.002716,66.338577 377.900421,81.758644 374.048218,97.238670 
	C372.979889,101.531830 371.099060,103.215446 366.544617,103.102646 
	C356.224579,102.847023 356.081635,103.110725 353.292450,93.358215 
	C350.875458,84.907005 348.817017,76.353233 345.540680,67.591675 
	C344.396515,71.192818 343.110016,74.756065 342.139008,78.403313 
	C340.343292,85.148392 338.581970,91.910210 337.109680,98.730545 
	C336.407715,101.982559 334.780579,102.993126 331.591034,103.056290 
	C319.963165,103.286560 319.772064,103.431839 316.687744,92.324715 
	C312.864380,78.556114 309.533173,64.650772 305.702972,50.884190 
	C304.539429,46.702209 306.072601,45.999100 309.715698,45.951233 
	C320.086029,45.814980 320.150421,45.706200 322.382751,55.690140 
	C324.464813,65.002174 326.386932,74.349960 329.283844,83.795937 
	C331.178955,76.129341 333.084045,68.465202 334.964844,60.795097 
	C335.874634,57.084888 336.888580,53.390903 337.575165,49.638306 
	C338.103333,46.751659 339.632294,46.011776 342.402252,45.942745 
	C353.450531,45.667408 353.437256,45.582245 356.040161,56.225250 
	C358.277588,65.373566 360.544098,74.514748 363.564728,83.688942 
	C363.903625,82.380409 364.242523,81.071869 364.690887,79.387383 
z"/>
<path fill="#282828" opacity="1.000000" stroke="none" 
	d="
M274.237915,57.859306 
	C280.069305,59.447834 285.619598,60.615379 290.901245,62.525673 
	C304.850616,67.570923 304.606720,87.491310 297.012177,95.507858 
	C288.628265,104.357628 277.991058,106.001144 266.726868,104.551041 
	C261.919983,103.932220 257.070953,102.155029 252.699554,99.981895 
	C245.859940,96.581726 243.034058,90.324615 242.532272,82.085175 
	C247.163925,82.085175 251.589676,81.945267 255.994080,82.189758 
	C257.014648,82.246407 258.259674,83.423592 258.896088,84.410896 
	C263.505219,91.561272 276.760071,93.656624 283.206207,88.155594 
	C287.724976,84.299355 286.539215,78.168762 280.413452,76.103722 
	C274.136444,73.987694 267.526459,72.880859 261.169708,70.973953 
	C254.170288,68.874237 247.847641,65.819824 245.136658,58.105110 
	C241.649429,48.181480 245.652512,36.570686 254.658386,31.205502 
	C265.426361,24.790569 286.641602,24.818384 295.702698,36.200005 
	C295.909149,36.459339 296.287506,36.639214 296.380096,36.923191 
	C297.714874,41.016991 299.014374,45.122284 300.322327,49.224827 
	C295.722076,49.404053 291.121735,49.666840 286.521698,49.661144 
	C285.918488,49.660397 285.210144,48.346764 284.731598,47.534519 
	C281.027618,41.247845 271.488556,38.309254 265.225922,42.126190 
	C263.085663,43.430626 260.867554,46.335434 260.713654,48.644264 
	C260.581818,50.622059 262.933868,53.444790 264.935455,54.715649 
	C267.511230,56.351128 270.833588,56.810764 274.237915,57.859306 
z"/>
<path fill="#282828" opacity="1.000000" stroke="none" 
	d="
M213.793030,91.942184 
	C216.043015,91.210815 218.464462,91.017448 219.633499,89.706886 
	C224.803680,83.910828 231.186569,86.516449 237.681686,86.126495 
	C237.109421,91.987907 234.255463,95.941467 230.310837,99.026642 
	C220.900070,106.386986 197.417648,107.241425 189.091812,93.501793 
	C180.436707,79.218811 182.096390,49.196476 205.394730,45.449596 
	C227.162247,41.948906 239.619278,54.303200 237.991318,75.939583 
	C237.745712,79.203857 235.557892,78.986984 233.378525,78.990578 
	C224.223969,79.005646 215.069336,78.983749 205.914841,79.013397 
	C204.148529,79.019112 202.382782,79.195374 200.624252,79.292542 
	C201.033585,87.594139 204.460754,90.859581 213.793030,91.942184 
M207.847122,58.078976 
	C203.889496,59.944679 201.031296,62.607975 200.903000,67.478195 
	C208.190079,67.478195 215.275772,67.478195 222.449127,67.478195 
	C220.775070,59.155186 216.048645,56.009090 207.847122,58.078976 
z"/>
<path fill="#282828" opacity="1.000000" stroke="none" 
	d="
M98.969238,50.281662 
	C98.990776,51.899887 98.886414,53.077473 99.017189,54.228336 
	C99.445709,57.999439 97.697357,59.499134 94.095978,58.984131 
	C89.289055,58.296741 87.609016,60.241077 87.908775,65.087860 
	C88.288284,71.224213 88.115158,77.404556 87.963707,83.560593 
	C87.857727,87.868484 89.402771,90.358261 94.011765,89.982155 
	C101.210136,89.394737 98.459145,94.783722 98.987427,98.177727 
	C99.652794,102.452454 97.203644,103.323631 93.642151,103.008400 
	C89.692184,102.658775 85.600510,102.918243 81.810921,101.960907 
	C74.543816,100.125092 72.043671,96.461288 72.009361,89.030968 
	C71.970924,80.707115 71.890518,72.380867 72.050362,64.059921 
	C72.116455,60.618999 71.332886,58.544735 67.384773,58.985851 
	C62.167149,59.568813 63.099613,55.788464 62.989792,52.717510 
	C62.875721,49.527843 62.802181,46.429230 67.452080,47.003780 
	C71.471634,47.500439 72.070732,45.236370 72.050362,41.875500 
	C71.992821,32.380905 70.667076,33.015537 80.797867,33.003208 
	C87.978012,32.994469 87.978035,33.007668 87.999992,39.975445 
	C88.021172,46.692192 88.035164,46.535301 94.638290,47.124458 
	C96.144318,47.258831 97.516983,48.887745 98.969238,50.281662 
z"/>
<path fill="#282828" opacity="1.000000" stroke="none" 
	d="
M178.000000,60.000000 
	C177.999374,72.981331 177.867889,85.464828 178.074203,97.942734 
	C178.140045,101.924988 176.755249,103.161598 172.874664,103.061249 
	C160.063828,102.729965 162.097244,104.544197 162.030289,92.213593 
	C161.919174,71.744820 162.128586,51.273575 161.902863,30.806683 
	C161.851654,26.162422 163.324692,24.762033 167.874725,24.916101 
	C179.550064,25.311436 177.875153,23.635607 177.984772,35.036789 
	C178.063156,43.190491 178.000000,51.345547 178.000000,60.000000 
z"/>
<path fill="#282828" opacity="1.000000" stroke="none" 
	d="
M406.999756,96.841888 
	C407.608551,101.573372 406.028870,103.245865 401.501373,103.088959 
	C390.723419,102.715424 392.061432,104.061462 392.015656,93.840111 
	C391.953064,79.863136 392.153320,65.883026 391.911743,51.909950 
	C391.834229,47.426517 393.053955,45.728268 397.770844,45.905174 
	C408.149200,46.294395 406.950745,45.020901 406.987183,54.932419 
	C407.037933,68.743095 406.999969,82.554085 406.999756,96.841888 
z"/>
<path fill="#000000" opacity="1.000000" stroke="none" 
	d="
M455.672485,77.428345 
	C453.211090,87.439964 449.867004,90.783173 442.186218,89.800987 
	C439.419159,89.447144 435.793976,87.609497 434.516418,85.345314 
	C430.750641,78.671272 430.632599,71.364349 434.170258,64.378372 
	C436.251160,60.269035 439.859192,58.729275 444.495483,58.948845 
	C448.849457,59.155048 452.030792,61.162983 453.363434,65.025185 
	C454.682892,68.849121 455.020691,73.011780 455.672485,77.428345 
z"/>
<path fill="#000000" opacity="1.000000" stroke="none" 
	d="
M492.854523,67.844154 
	C492.125977,66.947479 491.372284,66.033180 491.535217,65.331810 
	C492.455933,61.368576 497.410553,57.350193 501.777710,57.128944 
	C506.333771,56.898125 509.697266,59.156200 511.919739,63.002182 
	C513.673889,66.037796 513.222412,68.063805 509.112640,68.005249 
	C503.826691,67.929947 498.539368,67.947372 492.854523,67.844154 
z"/>
<path fill="#000000" opacity="1.000000" stroke="none" 
	d="
M208.200165,57.927761 
	C216.048645,56.009090 220.775070,59.155186 222.449127,67.478195 
	C215.275772,67.478195 208.190079,67.478195 200.903000,67.478195 
	C201.031296,62.607975 203.889496,59.944679 208.200165,57.927761 
z"/>
</svg>